<svg width="19" height="23" viewBox="0 0 19 23" fill="none" xmlns="http://www.w3.org/2000/svg">
<path fill-rule="evenodd" clip-rule="evenodd" d="M10.5398 2.62379L12.2369 0L18.9695 9.95925H12.4267L7.5141 2.70195L2.88059 9.30051L5.81701 9.32284L8.28449 5.82817L9.1442 7.13449L6.65439 10.6738H0L7.48061 0.0334947L13.2753 8.60828H16.2005L12.1811 2.73544L11.4107 3.91894L10.5398 2.62379Z" fill="white"/>
<path fill-rule="evenodd" clip-rule="evenodd" d="M7.5141 20.298L12.4267 13.0407H18.9695L12.2369 23L10.5398 20.3762L11.4107 19.081L12.1811 20.2645L16.2005 14.3917H13.2753L7.48061 22.9665L0 12.3262H6.65439L9.1442 15.8655L8.28449 17.1718L5.81701 13.6771L2.88059 13.6995L7.5141 20.298Z" fill="white"/>
</svg>
