<svg width="14" height="15" viewBox="0 0 14 15" fill="none" xmlns="http://www.w3.org/2000/svg">
<path d="M4.46109 8.41289L4.52574 6.20331C4.5173 5.85497 4.23057 5.57633 3.89891 5.57704L3.89862 5.57704C3.54506 5.57738 3.26958 5.85286 3.26923 6.20642L3.26925 6.20642L3.26921 6.20956L3.21066 10.5404C3.21114 10.8765 3.49356 11.1581 3.82872 11.1573L3.82871 11.1573L3.83413 11.1574L8.30999 11.2448C8.66241 11.2432 8.93666 10.9682 8.937 10.6154C8.93733 10.2787 8.65458 9.99636 8.31894 9.99707L8.31894 9.99727L8.30898 9.99689L5.93892 9.90739L5.36659 9.88578L5.77158 9.48079L10.905 4.34738C11.1539 4.09847 11.1561 3.70337 10.915 3.46236C10.6708 3.21807 10.2668 3.21797 10.0212 3.46356L4.88776 8.59698L4.44268 9.04205L4.46109 8.41289Z" fill="#8484F1" stroke="#161C23" stroke-width="0.5"/>
</svg>
