<svg width="14" height="15" viewBox="0 0 14 15" fill="none" xmlns="http://www.w3.org/2000/svg">
<path d="M9.96415 6.10497L9.94689 8.31543C9.9628 8.6635 10.2554 8.93593 10.587 8.92811L10.5873 8.92811C10.9408 8.92018 11.2103 8.63886 11.203 8.28537L11.203 8.28537L11.203 8.28224L11.1687 3.9511C11.161 3.61508 10.8726 3.33968 10.5375 3.34759L10.5375 3.34765L10.5321 3.34766L6.05541 3.35624C5.7031 3.36536 5.43481 3.64621 5.44203 3.99891C5.44893 4.33559 5.73767 4.61178 6.07321 4.60387L6.07321 4.60367L6.08318 4.60384L8.45461 4.6425L9.02727 4.65184L8.63106 5.06541L3.6089 10.3077C3.36539 10.5619 3.3717 10.957 3.61783 11.1928C3.8673 11.4317 4.27119 11.4232 4.51147 11.1724L9.53363 5.93008L9.96906 5.47555L9.96415 6.10497Z" fill="#CAA276" stroke="#161C23" stroke-width="0.5"/>
</svg>
