<svg width="9" height="12" viewBox="0 0 9 12" fill="none" xmlns="http://www.w3.org/2000/svg">
<path d="M0.994476 1.69585L0.994593 1.69597L4.06038 4.76277L0.994476 1.69585ZM0.994476 1.69585C0.801768 1.50265 0.801959 1.18996 0.994343 0.996598L0.994477 0.996464L0.994476 1.69585ZM4.40984 3.7139L4.51588 3.81998L7.23248 1.10274C7.36672 0.968161 7.58475 0.968161 7.71932 1.10274C7.85356 1.23731 7.85356 1.45568 7.71932 1.59026L1.10068 1.1024C1.23491 0.967821 1.45294 0.967821 1.58718 1.1024M4.40984 3.7139L4.30378 3.81998L1.58718 1.1024M4.40984 3.7139L1.69338 0.996464M4.40984 3.7139L7.12628 0.996804L7.23248 1.10273L7.1264 0.996683C7.31933 0.803398 7.63235 0.803631 7.82539 0.99667L7.82552 0.996804C8.01816 1.18993 8.01816 1.50307 7.82552 1.69619L7.82541 1.69631L4.75949 4.76324L4.75935 4.76338C4.56805 4.95423 4.2517 4.95447 4.06051 4.7629L1.69338 0.996464M1.58718 1.1024L1.69338 0.996464M1.58718 1.1024L1.69327 0.996349L1.69333 0.99641C1.69334 0.996428 1.69336 0.996446 1.69338 0.996464" fill="#C78D4E" stroke="#E09D54" stroke-width="0.3"/>
<path d="M7.82584 10.1625L7.82572 10.1624L4.75993 7.09563L7.82584 10.1625ZM7.82584 10.1625C8.01854 10.3557 8.01835 10.6684 7.82597 10.8618L7.82584 10.8619L7.82584 10.1625ZM4.41048 8.1445L4.30443 8.03842L1.58783 10.7557C1.4536 10.8902 1.23556 10.8902 1.10099 10.7557C0.966753 10.6211 0.966753 10.4027 1.10099 10.2681L7.71964 10.756C7.5854 10.8906 7.36737 10.8906 7.23313 10.756M4.41048 8.1445L4.51653 8.03842L7.23313 10.756M4.41048 8.1445L7.12693 10.8619M4.41048 8.1445L1.69403 10.8616L1.58783 10.7557L1.69391 10.8617C1.50098 11.055 1.18796 11.0548 0.994923 10.8617L0.994789 10.8616C0.802154 10.6685 0.802154 10.3553 0.994789 10.1622L0.994905 10.1621L4.06082 7.09516L4.06096 7.09502C4.25226 6.90417 4.56862 6.90393 4.7598 7.0955L7.12693 10.8619M7.23313 10.756L7.12693 10.8619M7.23313 10.756L7.12705 10.862L7.12699 10.862C7.12697 10.862 7.12695 10.862 7.12693 10.8619" fill="#C78D4E" stroke="#E09D54" stroke-width="0.3"/>
</svg>
